<?xml version="1.0" standalone="no"?>
<!DOCTYPE svg PUBLIC "-//W3C//DTD SVG 20010904//EN"
 "http://www.w3.org/TR/2001/REC-SVG-20010904/DTD/svg10.dtd">
<svg version="1.0" xmlns="http://www.w3.org/2000/svg"
 width="381.000000pt" height="380.000000pt" viewBox="0 0 381.000000 380.000000"
 preserveAspectRatio="xMidYMid meet">

  <g transform="translate(0.000000,380.000000) scale(0.100000,-0.100000)"
  fill="#000000" stroke="none">
    <path d="M1725 3779 c-651 -61 -1234 -465 -1521 -1054 -253 -522 -253 -1128 0
    -1650 184 -378 493 -687 871 -871 734 -356 1608 -203 2176 382 151 156 254
    302 345 489 356 734 203 1608 -382 2176 -55 52 -126 116 -159 141 -389 294
    -858 431 -1330 387z m386 -615 c475 -81 868 -423 1012 -880 76 -241 76 -527 0
    -768 -124 -395 -444 -715 -839 -839 -241 -76 -527 -76 -768 0 -336 106 -636
    369 -780 684 -131 288 -152 626 -59 923 125 397 448 719 845 841 181 55 405
    70 589 39z"/>
    <path d="M1746 2623 c-138 -29 -253 -91 -359 -191 -252 -241 -300 -634 -112
    -927 224 -350 689 -450 1033 -221 341 226 434 685 208 1024 -79 119 -208 226
    -335 277 -130 53 -299 68 -435 38z"/>
  </g>
</svg>
