<?xml version="1.0" standalone="no"?>
<!DOCTYPE svg PUBLIC "-//W3C//DTD SVG 20010904//EN"
 "http://www.w3.org/TR/2001/REC-SVG-20010904/DTD/svg10.dtd">
<svg version="1.0" xmlns="http://www.w3.org/2000/svg"
 width="348.000000pt" height="348.000000pt" viewBox="0 0 348.000000 348.000000"
 preserveAspectRatio="xMidYMid meet">

<g transform="translate(0.000000,348.000000) scale(0.100000,-0.100000)"
fill="#000000" stroke="none">
<path d="M1512 3360 c-403 -88 -699 -344 -817 -710 -23 -70 -28 -109 -33 -221
-5 -161 11 -259 64 -389 20 -47 37 -92 40 -100 3 -9 -12 -38 -33 -65 -108
-142 -193 -329 -234 -515 -30 -137 -33 -370 -6 -500 56 -264 166 -470 351
-657 l101 -103 801 0 801 0 51 40 c86 69 198 208 274 340 45 78 97 215 125
327 24 96 27 127 28 283 0 189 -13 275 -62 420 -35 104 -114 256 -180 346
l-55 75 36 80 c57 125 80 232 79 379 0 193 -46 345 -152 506 -150 227 -369
378 -661 456 -115 31 -393 35 -518 8z m483 -229 c248 -66 452 -226 559 -439
81 -160 90 -402 21 -564 l-11 -28 -812 -3 -811 -2 -21 55 c-64 175 -51 381 36
554 108 217 329 379 594 437 116 26 329 21 445 -10z"/>
</g>
</svg>
